<svg xmlns="http://www.w3.org/2000/svg" width="1536" height="730" style="cursor: move;"><g transform="translate(-726.3655856038015,-430.5769325347427) scale(2.0000000000000013)"><path class="link" marker-end="" d="M682,315C735,315 735,355 788,355" style="stroke-width: 0.92; stroke-opacity: 1; stroke: rgb(80, 80, 80); fill: none; opacity: 1;"></path><path class="link" marker-end="" d="M682,355C735,355 735,355 788,355" style="stroke-width: 0.92; stroke-opacity: 1; stroke: rgb(80, 80, 80); fill: none; opacity: 1;"></path><path class="link" marker-end="" d="M788,315C841,315 841,355 894,355" style="stroke-width: 0.92; stroke-opacity: 1; stroke: rgb(80, 80, 80); fill: none; opacity: 1;"></path><path class="link" marker-end="" d="M788,355C841,355 841,355 894,355" style="stroke-width: 0.92; stroke-opacity: 1; stroke: rgb(80, 80, 80); fill: none; opacity: 1;"></path><path class="link" marker-end="" d="M682,395C735,395 735,355 788,355" style="stroke-width: 0.92; stroke-opacity: 1; stroke: rgb(80, 80, 80); fill: none; opacity: 1;"></path><path class="link" marker-end="" d="M682,315C735,315 735,395 788,395" style="stroke-width: 0.92; stroke-opacity: 1; stroke: rgb(80, 80, 80); fill: none; opacity: 1;"></path><path class="link" marker-end="" d="M682,355C735,355 735,395 788,395" style="stroke-width: 0.92; stroke-opacity: 1; stroke: rgb(80, 80, 80); fill: none; opacity: 1;"></path><path class="link" marker-end="" d="M682,395C735,395 735,395 788,395" style="stroke-width: 0.92; stroke-opacity: 1; stroke: rgb(80, 80, 80); fill: none; opacity: 1;"></path><path class="link" marker-end="" d="M788,395C841,395 841,355 894,355" style="stroke-width: 0.92; stroke-opacity: 1; stroke: rgb(80, 80, 80); fill: none; opacity: 1;"></path><circle r="10" class="node" id="0_0" cx="682" cy="315" style="fill: rgb(255, 255, 255); stroke: rgb(51, 51, 51); opacity: 1;"></circle><circle r="10" class="node" id="0_1" cx="682" cy="355" style="fill: rgb(255, 255, 255); stroke: rgb(51, 51, 51); opacity: 1;"></circle><circle r="10" class="node" id="0_2" cx="682" cy="395" style="fill: rgb(255, 255, 255); stroke: rgb(51, 51, 51); opacity: 1;"></circle><circle r="10" class="node" id="1_0" cx="788" cy="315" style="fill: rgb(255, 255, 255); stroke: rgb(51, 51, 51); opacity: 1;"></circle><circle r="10" class="node" id="1_1" cx="788" cy="355" style="fill: rgb(255, 255, 255); stroke: rgb(51, 51, 51); opacity: 1;"></circle><text class="text" dy=".35em" x="647" y="435" style="font-size: 12px;">Input Layer ∈ ℝ³</text><text class="text" dy=".35em" x="753" y="435" style="font-size: 12px;">Hidden Layer ∈ ℝ³</text><circle r="10" class="node" id="1_2" cx="788" cy="395" style="fill: rgb(255, 255, 255); stroke: rgb(51, 51, 51); opacity: 1;"></circle><circle r="10" class="node" id="2_0" cx="894" cy="355" style="fill: rgb(255, 255, 255); stroke: rgb(51, 51, 51); opacity: 1;"></circle><text class="text" dy=".35em" x="859" y="435" style="font-size: 12px;">Output Layer ∈ ℝ¹</text></g><defs><marker id="arrow" viewBox="0 -5 10 10" markerWidth="7" markerHeight="7" orient="auto" refX="40"><path d="M0,-5L10,0L0,5" style="stroke: rgb(80, 80, 80); fill: rgb(80, 80, 80);"></path></marker></defs></svg>